<mxfile host="app.diagrams.net" modified="2023-12-05T03:07:33.009Z" agent="Mozilla/5.0 (Windows NT 10.0; Win64; x64) AppleWebKit/537.36 (KHTML, like Gecko) Chrome/119.0.0.0 Safari/537.36 Edg/119.0.0.0" etag="YJw-t_5zjPp2P46UCxIu" version="22.1.5" type="device">
  <diagram name="Сторінка-1" id="sw80Jyur9uYdEi_8vY34">
    <mxGraphModel dx="916" dy="1588" grid="1" gridSize="10" guides="1" tooltips="1" connect="1" arrows="1" fold="1" page="1" pageScale="1" pageWidth="827" pageHeight="1169" math="0" shadow="0">
      <root>
        <mxCell id="0" />
        <mxCell id="1" parent="0" />
        <mxCell id="K0KpiSPd31wr5EdOVSdW-57" value="" style="rounded=0;whiteSpace=wrap;html=1;" parent="1" vertex="1">
          <mxGeometry x="160" y="-70" width="620" height="610" as="geometry" />
        </mxCell>
        <mxCell id="K0KpiSPd31wr5EdOVSdW-1" value="Користувач" style="shape=umlActor;verticalLabelPosition=bottom;verticalAlign=top;html=1;outlineConnect=0;" parent="1" vertex="1">
          <mxGeometry x="120" y="225" width="30" height="60" as="geometry" />
        </mxCell>
        <mxCell id="K0KpiSPd31wr5EdOVSdW-2" value="Ввести дані" style="ellipse;whiteSpace=wrap;html=1;" parent="1" vertex="1">
          <mxGeometry x="280" y="310" width="100" height="40" as="geometry" />
        </mxCell>
        <mxCell id="K0KpiSPd31wr5EdOVSdW-5" style="edgeStyle=orthogonalEdgeStyle;rounded=0;orthogonalLoop=1;jettySize=auto;html=1;entryX=0.5;entryY=1;entryDx=0;entryDy=0;" parent="1" source="K0KpiSPd31wr5EdOVSdW-3" target="K0KpiSPd31wr5EdOVSdW-2" edge="1">
          <mxGeometry relative="1" as="geometry" />
        </mxCell>
        <mxCell id="K0KpiSPd31wr5EdOVSdW-3" value="Ввести вручну" style="ellipse;whiteSpace=wrap;html=1;" parent="1" vertex="1">
          <mxGeometry x="200" y="390" width="100" height="40" as="geometry" />
        </mxCell>
        <mxCell id="K0KpiSPd31wr5EdOVSdW-6" style="edgeStyle=orthogonalEdgeStyle;rounded=0;orthogonalLoop=1;jettySize=auto;html=1;" parent="1" source="K0KpiSPd31wr5EdOVSdW-4" edge="1">
          <mxGeometry relative="1" as="geometry">
            <mxPoint x="330" y="350" as="targetPoint" />
            <Array as="points">
              <mxPoint x="414" y="370" />
              <mxPoint x="330" y="370" />
            </Array>
          </mxGeometry>
        </mxCell>
        <mxCell id="K0KpiSPd31wr5EdOVSdW-4" value="Імпортувати з файлу" style="ellipse;whiteSpace=wrap;html=1;" parent="1" vertex="1">
          <mxGeometry x="361" y="390" width="106" height="50" as="geometry" />
        </mxCell>
        <mxCell id="K0KpiSPd31wr5EdOVSdW-9" value="" style="triangle;whiteSpace=wrap;html=1;rotation=-90;" parent="1" vertex="1">
          <mxGeometry x="325" y="350" width="10" height="10" as="geometry" />
        </mxCell>
        <mxCell id="K0KpiSPd31wr5EdOVSdW-12" value="Обрати файл" style="ellipse;whiteSpace=wrap;html=1;" parent="1" vertex="1">
          <mxGeometry x="510" y="470" width="100" height="50" as="geometry" />
        </mxCell>
        <mxCell id="K0KpiSPd31wr5EdOVSdW-13" value="" style="endArrow=none;dashed=1;html=1;rounded=0;exitX=1;exitY=1;exitDx=0;exitDy=0;entryX=0.098;entryY=0.188;entryDx=0;entryDy=0;entryPerimeter=0;" parent="1" source="K0KpiSPd31wr5EdOVSdW-4" target="K0KpiSPd31wr5EdOVSdW-12" edge="1">
          <mxGeometry width="50" height="50" relative="1" as="geometry">
            <mxPoint x="470" y="530" as="sourcePoint" />
            <mxPoint x="520" y="480" as="targetPoint" />
          </mxGeometry>
        </mxCell>
        <mxCell id="K0KpiSPd31wr5EdOVSdW-16" value="&amp;lt;&amp;lt;include&amp;gt;&amp;gt;" style="edgeLabel;html=1;align=center;verticalAlign=middle;resizable=0;points=[];" parent="K0KpiSPd31wr5EdOVSdW-13" vertex="1" connectable="0">
          <mxGeometry x="-0.0282" y="1" relative="1" as="geometry">
            <mxPoint as="offset" />
          </mxGeometry>
        </mxCell>
        <mxCell id="K0KpiSPd31wr5EdOVSdW-14" value="" style="endArrow=none;html=1;rounded=0;" parent="1" edge="1">
          <mxGeometry width="50" height="50" relative="1" as="geometry">
            <mxPoint x="518" y="479" as="sourcePoint" />
            <mxPoint x="510" y="460" as="targetPoint" />
          </mxGeometry>
        </mxCell>
        <mxCell id="K0KpiSPd31wr5EdOVSdW-15" value="" style="endArrow=none;html=1;rounded=0;" parent="1" edge="1">
          <mxGeometry width="50" height="50" relative="1" as="geometry">
            <mxPoint x="519" y="478" as="sourcePoint" />
            <mxPoint x="499" y="478" as="targetPoint" />
          </mxGeometry>
        </mxCell>
        <mxCell id="K0KpiSPd31wr5EdOVSdW-17" value="Вивести дані у файл" style="ellipse;whiteSpace=wrap;html=1;" parent="1" vertex="1">
          <mxGeometry x="420" y="240" width="130" height="40" as="geometry" />
        </mxCell>
        <mxCell id="K0KpiSPd31wr5EdOVSdW-18" value="Обрати рік" style="ellipse;whiteSpace=wrap;html=1;" parent="1" vertex="1">
          <mxGeometry x="590" y="170" width="90" height="30" as="geometry" />
        </mxCell>
        <mxCell id="K0KpiSPd31wr5EdOVSdW-19" value="Вивести власників, які за рік спожили найменше послуг" style="ellipse;whiteSpace=wrap;html=1;" parent="1" vertex="1">
          <mxGeometry x="420" y="145" width="120" height="80" as="geometry" />
        </mxCell>
        <mxCell id="K0KpiSPd31wr5EdOVSdW-22" value="Відображення місяців, для яких інформація не заповнена" style="ellipse;whiteSpace=wrap;html=1;" parent="1" vertex="1">
          <mxGeometry x="460" y="80" width="140" height="60" as="geometry" />
        </mxCell>
        <mxCell id="K0KpiSPd31wr5EdOVSdW-23" value="Встановлення ціни в межах року за один кубометр води та за одну кВт⋅год" style="ellipse;whiteSpace=wrap;html=1;" parent="1" vertex="1">
          <mxGeometry x="490" y="-20" width="150" height="85" as="geometry" />
        </mxCell>
        <mxCell id="K0KpiSPd31wr5EdOVSdW-24" value="Відображення номера квартири , яка спожила найбільше ресурсів" style="ellipse;whiteSpace=wrap;html=1;" parent="1" vertex="1">
          <mxGeometry x="280" y="10" width="160" height="70" as="geometry" />
        </mxCell>
        <mxCell id="K0KpiSPd31wr5EdOVSdW-25" value="Відображення вартості спожитих послуг по місячно, агреговану для всіх квартир" style="ellipse;whiteSpace=wrap;html=1;" parent="1" vertex="1">
          <mxGeometry x="510" y="270" width="180" height="90" as="geometry" />
        </mxCell>
        <mxCell id="K0KpiSPd31wr5EdOVSdW-26" value="Очистити всі дані" style="ellipse;whiteSpace=wrap;html=1;" parent="1" vertex="1">
          <mxGeometry x="180" y="80" width="110" height="30" as="geometry" />
        </mxCell>
        <mxCell id="K0KpiSPd31wr5EdOVSdW-27" value="" style="endArrow=none;html=1;rounded=0;exitX=0.5;exitY=0.5;exitDx=0;exitDy=0;exitPerimeter=0;entryX=0.5;entryY=1;entryDx=0;entryDy=0;" parent="1" source="K0KpiSPd31wr5EdOVSdW-1" target="K0KpiSPd31wr5EdOVSdW-26" edge="1">
          <mxGeometry width="50" height="50" relative="1" as="geometry">
            <mxPoint x="500" y="270" as="sourcePoint" />
            <mxPoint x="550" y="220" as="targetPoint" />
          </mxGeometry>
        </mxCell>
        <mxCell id="K0KpiSPd31wr5EdOVSdW-28" value="" style="endArrow=none;html=1;rounded=0;exitX=0.5;exitY=0.5;exitDx=0;exitDy=0;exitPerimeter=0;entryX=0.5;entryY=0;entryDx=0;entryDy=0;" parent="1" source="K0KpiSPd31wr5EdOVSdW-1" target="K0KpiSPd31wr5EdOVSdW-2" edge="1">
          <mxGeometry width="50" height="50" relative="1" as="geometry">
            <mxPoint x="145" y="265" as="sourcePoint" />
            <mxPoint x="260" y="130" as="targetPoint" />
          </mxGeometry>
        </mxCell>
        <mxCell id="K0KpiSPd31wr5EdOVSdW-29" value="" style="endArrow=none;html=1;rounded=0;exitX=0.5;exitY=0.5;exitDx=0;exitDy=0;exitPerimeter=0;entryX=0.356;entryY=1.021;entryDx=0;entryDy=0;entryPerimeter=0;" parent="1" source="K0KpiSPd31wr5EdOVSdW-1" target="K0KpiSPd31wr5EdOVSdW-24" edge="1">
          <mxGeometry width="50" height="50" relative="1" as="geometry">
            <mxPoint x="500" y="270" as="sourcePoint" />
            <mxPoint x="550" y="220" as="targetPoint" />
          </mxGeometry>
        </mxCell>
        <mxCell id="K0KpiSPd31wr5EdOVSdW-30" value="" style="endArrow=none;html=1;rounded=0;exitX=0.5;exitY=0.5;exitDx=0;exitDy=0;exitPerimeter=0;entryX=0;entryY=0.5;entryDx=0;entryDy=0;" parent="1" source="K0KpiSPd31wr5EdOVSdW-1" target="K0KpiSPd31wr5EdOVSdW-23" edge="1">
          <mxGeometry width="50" height="50" relative="1" as="geometry">
            <mxPoint x="500" y="270" as="sourcePoint" />
            <mxPoint x="550" y="220" as="targetPoint" />
          </mxGeometry>
        </mxCell>
        <mxCell id="K0KpiSPd31wr5EdOVSdW-31" value="" style="endArrow=none;html=1;rounded=0;exitX=0.5;exitY=0.5;exitDx=0;exitDy=0;exitPerimeter=0;entryX=0;entryY=0.5;entryDx=0;entryDy=0;" parent="1" source="K0KpiSPd31wr5EdOVSdW-1" target="K0KpiSPd31wr5EdOVSdW-22" edge="1">
          <mxGeometry width="50" height="50" relative="1" as="geometry">
            <mxPoint x="500" y="270" as="sourcePoint" />
            <mxPoint x="550" y="220" as="targetPoint" />
          </mxGeometry>
        </mxCell>
        <mxCell id="K0KpiSPd31wr5EdOVSdW-32" value="" style="endArrow=none;html=1;rounded=0;exitX=0.5;exitY=0.5;exitDx=0;exitDy=0;exitPerimeter=0;entryX=0;entryY=0.5;entryDx=0;entryDy=0;" parent="1" source="K0KpiSPd31wr5EdOVSdW-1" target="K0KpiSPd31wr5EdOVSdW-19" edge="1">
          <mxGeometry width="50" height="50" relative="1" as="geometry">
            <mxPoint x="500" y="270" as="sourcePoint" />
            <mxPoint x="550" y="220" as="targetPoint" />
          </mxGeometry>
        </mxCell>
        <mxCell id="K0KpiSPd31wr5EdOVSdW-33" value="" style="endArrow=none;html=1;rounded=0;exitX=0.5;exitY=0.5;exitDx=0;exitDy=0;exitPerimeter=0;entryX=0;entryY=0.5;entryDx=0;entryDy=0;" parent="1" source="K0KpiSPd31wr5EdOVSdW-1" target="K0KpiSPd31wr5EdOVSdW-17" edge="1">
          <mxGeometry width="50" height="50" relative="1" as="geometry">
            <mxPoint x="140" y="250" as="sourcePoint" />
            <mxPoint x="550" y="220" as="targetPoint" />
          </mxGeometry>
        </mxCell>
        <mxCell id="K0KpiSPd31wr5EdOVSdW-34" value="" style="endArrow=none;html=1;rounded=0;exitX=0.5;exitY=0.5;exitDx=0;exitDy=0;exitPerimeter=0;entryX=0;entryY=0.5;entryDx=0;entryDy=0;" parent="1" source="K0KpiSPd31wr5EdOVSdW-1" target="K0KpiSPd31wr5EdOVSdW-25" edge="1">
          <mxGeometry width="50" height="50" relative="1" as="geometry">
            <mxPoint x="500" y="270" as="sourcePoint" />
            <mxPoint x="550" y="220" as="targetPoint" />
          </mxGeometry>
        </mxCell>
        <mxCell id="K0KpiSPd31wr5EdOVSdW-35" value="" style="endArrow=none;dashed=1;html=1;rounded=0;entryX=0.778;entryY=0.924;entryDx=0;entryDy=0;entryPerimeter=0;" parent="1" source="K0KpiSPd31wr5EdOVSdW-18" target="K0KpiSPd31wr5EdOVSdW-23" edge="1">
          <mxGeometry width="50" height="50" relative="1" as="geometry">
            <mxPoint x="500" y="270" as="sourcePoint" />
            <mxPoint x="550" y="220" as="targetPoint" />
          </mxGeometry>
        </mxCell>
        <mxCell id="K0KpiSPd31wr5EdOVSdW-41" value="&amp;lt;&amp;lt;include&amp;gt;&amp;gt;" style="edgeLabel;html=1;align=center;verticalAlign=middle;resizable=0;points=[];" parent="K0KpiSPd31wr5EdOVSdW-35" vertex="1" connectable="0">
          <mxGeometry x="-0.0356" y="2" relative="1" as="geometry">
            <mxPoint x="12" y="13" as="offset" />
          </mxGeometry>
        </mxCell>
        <mxCell id="K0KpiSPd31wr5EdOVSdW-37" value="" style="endArrow=none;dashed=1;html=1;rounded=0;entryX=1;entryY=1;entryDx=0;entryDy=0;exitX=0;exitY=0;exitDx=0;exitDy=0;" parent="1" source="K0KpiSPd31wr5EdOVSdW-18" target="K0KpiSPd31wr5EdOVSdW-22" edge="1">
          <mxGeometry width="50" height="50" relative="1" as="geometry">
            <mxPoint x="600" y="170" as="sourcePoint" />
            <mxPoint x="550" y="220" as="targetPoint" />
          </mxGeometry>
        </mxCell>
        <mxCell id="K0KpiSPd31wr5EdOVSdW-42" value="&amp;lt;&amp;lt;include&amp;gt;&amp;gt;" style="edgeLabel;html=1;align=center;verticalAlign=middle;resizable=0;points=[];" parent="K0KpiSPd31wr5EdOVSdW-37" vertex="1" connectable="0">
          <mxGeometry x="0.2464" y="-1" relative="1" as="geometry">
            <mxPoint as="offset" />
          </mxGeometry>
        </mxCell>
        <mxCell id="K0KpiSPd31wr5EdOVSdW-38" value="" style="endArrow=none;dashed=1;html=1;rounded=0;exitX=1;exitY=0.5;exitDx=0;exitDy=0;entryX=0;entryY=0.5;entryDx=0;entryDy=0;" parent="1" source="K0KpiSPd31wr5EdOVSdW-19" target="K0KpiSPd31wr5EdOVSdW-18" edge="1">
          <mxGeometry width="50" height="50" relative="1" as="geometry">
            <mxPoint x="520" y="250" as="sourcePoint" />
            <mxPoint x="570" y="200" as="targetPoint" />
          </mxGeometry>
        </mxCell>
        <mxCell id="K0KpiSPd31wr5EdOVSdW-44" value="&amp;lt;&amp;lt;include&amp;gt;&amp;gt;" style="edgeLabel;html=1;align=center;verticalAlign=middle;resizable=0;points=[];" parent="K0KpiSPd31wr5EdOVSdW-38" vertex="1" connectable="0">
          <mxGeometry x="0.0024" relative="1" as="geometry">
            <mxPoint x="-5" y="-15" as="offset" />
          </mxGeometry>
        </mxCell>
        <mxCell id="K0KpiSPd31wr5EdOVSdW-39" value="" style="endArrow=none;dashed=1;html=1;rounded=0;exitX=0.912;exitY=0.24;exitDx=0;exitDy=0;exitPerimeter=0;entryX=0;entryY=1;entryDx=0;entryDy=0;" parent="1" source="K0KpiSPd31wr5EdOVSdW-17" target="K0KpiSPd31wr5EdOVSdW-18" edge="1">
          <mxGeometry width="50" height="50" relative="1" as="geometry">
            <mxPoint x="520" y="250" as="sourcePoint" />
            <mxPoint x="570" y="200" as="targetPoint" />
          </mxGeometry>
        </mxCell>
        <mxCell id="K0KpiSPd31wr5EdOVSdW-45" value="&amp;lt;&amp;lt;include&amp;gt;&amp;gt;" style="edgeLabel;html=1;align=center;verticalAlign=middle;resizable=0;points=[];" parent="K0KpiSPd31wr5EdOVSdW-39" vertex="1" connectable="0">
          <mxGeometry x="0.0058" y="2" relative="1" as="geometry">
            <mxPoint as="offset" />
          </mxGeometry>
        </mxCell>
        <mxCell id="K0KpiSPd31wr5EdOVSdW-40" value="" style="endArrow=none;dashed=1;html=1;rounded=0;exitX=0.5;exitY=0;exitDx=0;exitDy=0;entryX=0.417;entryY=1.006;entryDx=0;entryDy=0;entryPerimeter=0;" parent="1" source="K0KpiSPd31wr5EdOVSdW-25" target="K0KpiSPd31wr5EdOVSdW-18" edge="1">
          <mxGeometry width="50" height="50" relative="1" as="geometry">
            <mxPoint x="520" y="250" as="sourcePoint" />
            <mxPoint x="570" y="200" as="targetPoint" />
          </mxGeometry>
        </mxCell>
        <mxCell id="K0KpiSPd31wr5EdOVSdW-46" value="&amp;lt;&amp;lt;include&amp;gt;&amp;gt;" style="edgeLabel;html=1;align=center;verticalAlign=middle;resizable=0;points=[];" parent="K0KpiSPd31wr5EdOVSdW-40" vertex="1" connectable="0">
          <mxGeometry x="0.0645" relative="1" as="geometry">
            <mxPoint as="offset" />
          </mxGeometry>
        </mxCell>
        <mxCell id="K0KpiSPd31wr5EdOVSdW-47" value="" style="endArrow=none;html=1;rounded=0;entryX=0.411;entryY=1.011;entryDx=0;entryDy=0;entryPerimeter=0;" parent="1" target="K0KpiSPd31wr5EdOVSdW-18" edge="1">
          <mxGeometry width="50" height="50" relative="1" as="geometry">
            <mxPoint x="620" y="210" as="sourcePoint" />
            <mxPoint x="660" y="200" as="targetPoint" />
          </mxGeometry>
        </mxCell>
        <mxCell id="K0KpiSPd31wr5EdOVSdW-48" value="" style="endArrow=none;html=1;rounded=0;entryX=0.412;entryY=1.018;entryDx=0;entryDy=0;entryPerimeter=0;" parent="1" edge="1">
          <mxGeometry width="50" height="50" relative="1" as="geometry">
            <mxPoint x="627" y="212" as="sourcePoint" />
            <mxPoint x="627.0799999999999" y="202.54000000000002" as="targetPoint" />
          </mxGeometry>
        </mxCell>
        <mxCell id="K0KpiSPd31wr5EdOVSdW-49" value="" style="endArrow=none;html=1;rounded=0;entryX=0.411;entryY=1.011;entryDx=0;entryDy=0;entryPerimeter=0;" parent="1" edge="1">
          <mxGeometry width="50" height="50" relative="1" as="geometry">
            <mxPoint x="595.5" y="206" as="sourcePoint" />
            <mxPoint x="602.5" y="196" as="targetPoint" />
          </mxGeometry>
        </mxCell>
        <mxCell id="K0KpiSPd31wr5EdOVSdW-50" value="" style="endArrow=none;html=1;rounded=0;entryX=0.117;entryY=0.85;entryDx=0;entryDy=0;entryPerimeter=0;" parent="1" edge="1">
          <mxGeometry width="50" height="50" relative="1" as="geometry">
            <mxPoint x="590" y="200" as="sourcePoint" />
            <mxPoint x="602.53" y="195.5" as="targetPoint" />
          </mxGeometry>
        </mxCell>
        <mxCell id="K0KpiSPd31wr5EdOVSdW-51" value="" style="endArrow=none;html=1;rounded=0;entryX=0.411;entryY=1.011;entryDx=0;entryDy=0;entryPerimeter=0;" parent="1" edge="1">
          <mxGeometry width="50" height="50" relative="1" as="geometry">
            <mxPoint x="580" y="190" as="sourcePoint" />
            <mxPoint x="589.5" y="185" as="targetPoint" />
          </mxGeometry>
        </mxCell>
        <mxCell id="K0KpiSPd31wr5EdOVSdW-52" value="" style="endArrow=none;html=1;rounded=0;entryX=-0.014;entryY=0.504;entryDx=0;entryDy=0;entryPerimeter=0;" parent="1" target="K0KpiSPd31wr5EdOVSdW-18" edge="1">
          <mxGeometry width="50" height="50" relative="1" as="geometry">
            <mxPoint x="580" y="180" as="sourcePoint" />
            <mxPoint x="588.5" y="180" as="targetPoint" />
          </mxGeometry>
        </mxCell>
        <mxCell id="K0KpiSPd31wr5EdOVSdW-53" value="" style="endArrow=none;html=1;rounded=0;exitX=0.484;exitY=-0.012;exitDx=0;exitDy=0;exitPerimeter=0;" parent="1" source="K0KpiSPd31wr5EdOVSdW-18" edge="1">
          <mxGeometry width="50" height="50" relative="1" as="geometry">
            <mxPoint x="627.75" y="169" as="sourcePoint" />
            <mxPoint x="636.25" y="159" as="targetPoint" />
          </mxGeometry>
        </mxCell>
        <mxCell id="K0KpiSPd31wr5EdOVSdW-54" value="" style="endArrow=none;html=1;rounded=0;exitX=0.477;exitY=-0.005;exitDx=0;exitDy=0;exitPerimeter=0;" parent="1" source="K0KpiSPd31wr5EdOVSdW-18" edge="1">
          <mxGeometry width="50" height="50" relative="1" as="geometry">
            <mxPoint x="638.3899999999999" y="171" as="sourcePoint" />
            <mxPoint x="626" y="161.3" as="targetPoint" />
          </mxGeometry>
        </mxCell>
        <mxCell id="K0KpiSPd31wr5EdOVSdW-55" value="" style="endArrow=none;html=1;rounded=0;exitX=0.477;exitY=-0.005;exitDx=0;exitDy=0;exitPerimeter=0;" parent="1" edge="1">
          <mxGeometry width="50" height="50" relative="1" as="geometry">
            <mxPoint x="603.5" y="174.7" as="sourcePoint" />
            <mxPoint x="596.5" y="166" as="targetPoint" />
          </mxGeometry>
        </mxCell>
        <mxCell id="K0KpiSPd31wr5EdOVSdW-56" value="" style="endArrow=none;html=1;rounded=0;exitX=0;exitY=0;exitDx=0;exitDy=0;" parent="1" source="K0KpiSPd31wr5EdOVSdW-18" edge="1">
          <mxGeometry width="50" height="50" relative="1" as="geometry">
            <mxPoint x="655" y="184" as="sourcePoint" />
            <mxPoint x="602" y="164" as="targetPoint" />
          </mxGeometry>
        </mxCell>
      </root>
    </mxGraphModel>
  </diagram>
</mxfile>
